<mxfile host="app.diagrams.net" agent="Mozilla/5.0 (Windows NT 10.0; Win64; x64) AppleWebKit/537.36 (KHTML, like Gecko) Chrome/135.0.0.0 Safari/537.36" version="26.2.14">
  <diagram name="Page-1" id="ejnm6d-M_YXK_HBPl8UK">
    <mxGraphModel dx="2977" dy="1904" grid="1" gridSize="10" guides="1" tooltips="1" connect="1" arrows="1" fold="1" page="1" pageScale="1" pageWidth="850" pageHeight="1100" math="0" shadow="0">
      <root>
        <mxCell id="0" />
        <mxCell id="1" parent="0" />
        <mxCell id="4JGCPMi-e-G_XObt6sAW-1" value="" style="shape=umlLifeline;perimeter=lifelinePerimeter;whiteSpace=wrap;html=1;container=1;dropTarget=0;collapsible=0;recursiveResize=0;outlineConnect=0;portConstraint=eastwest;newEdgeStyle={&quot;curved&quot;:0,&quot;rounded&quot;:0};participant=umlActor;" vertex="1" parent="1">
          <mxGeometry x="-830" y="-40" width="30" height="1720" as="geometry" />
        </mxCell>
        <mxCell id="4JGCPMi-e-G_XObt6sAW-2" value="Committee" style="text;html=1;align=center;verticalAlign=middle;resizable=0;points=[];autosize=1;strokeColor=none;fillColor=none;fontSize=14;fontStyle=1" vertex="1" parent="1">
          <mxGeometry x="-860" y="-80" width="90" height="30" as="geometry" />
        </mxCell>
        <mxCell id="4JGCPMi-e-G_XObt6sAW-4" value="committee-homepage" style="shape=umlLifeline;perimeter=lifelinePerimeter;whiteSpace=wrap;html=1;container=1;dropTarget=0;collapsible=0;recursiveResize=0;outlineConnect=0;portConstraint=eastwest;newEdgeStyle={&quot;curved&quot;:0,&quot;rounded&quot;:0};fontSize=14;fontStyle=1" vertex="1" parent="1">
          <mxGeometry x="-720" y="-40" width="160" height="1720" as="geometry" />
        </mxCell>
        <mxCell id="4JGCPMi-e-G_XObt6sAW-5" value="" style="html=1;points=[[0,0,0,0,5],[0,1,0,0,-5],[1,0,0,0,5],[1,1,0,0,-5]];perimeter=orthogonalPerimeter;outlineConnect=0;targetShapes=umlLifeline;portConstraint=eastwest;newEdgeStyle={&quot;curved&quot;:0,&quot;rounded&quot;:0};strokeColor=#000000;fillColor=#dae8fc;" vertex="1" parent="4JGCPMi-e-G_XObt6sAW-4">
          <mxGeometry x="75" y="70" width="10" height="70" as="geometry" />
        </mxCell>
        <mxCell id="4JGCPMi-e-G_XObt6sAW-116" value="" style="html=1;points=[[0,0,0,0,5],[0,1,0,0,-5],[1,0,0,0,5],[1,1,0,0,-5]];perimeter=orthogonalPerimeter;outlineConnect=0;targetShapes=umlLifeline;portConstraint=eastwest;newEdgeStyle={&quot;curved&quot;:0,&quot;rounded&quot;:0};strokeColor=#000000;fillColor=#dae8fc;" vertex="1" parent="4JGCPMi-e-G_XObt6sAW-4">
          <mxGeometry x="75" y="1520" width="10" height="110" as="geometry" />
        </mxCell>
        <mxCell id="4JGCPMi-e-G_XObt6sAW-7" value="CommitteeController" style="shape=umlLifeline;perimeter=lifelinePerimeter;whiteSpace=wrap;html=1;container=1;dropTarget=0;collapsible=0;recursiveResize=0;outlineConnect=0;portConstraint=eastwest;newEdgeStyle={&quot;curved&quot;:0,&quot;rounded&quot;:0};fontSize=14;fontStyle=1" vertex="1" parent="1">
          <mxGeometry x="-520" y="-40" width="160" height="1720" as="geometry" />
        </mxCell>
        <mxCell id="4JGCPMi-e-G_XObt6sAW-8" value="" style="html=1;points=[[0,0,0,0,5],[0,1,0,0,-5],[1,0,0,0,5],[1,1,0,0,-5]];perimeter=orthogonalPerimeter;outlineConnect=0;targetShapes=umlLifeline;portConstraint=eastwest;newEdgeStyle={&quot;curved&quot;:0,&quot;rounded&quot;:0};strokeColor=#000000;fillColor=#dae8fc;" vertex="1" parent="4JGCPMi-e-G_XObt6sAW-7">
          <mxGeometry x="75" y="80" width="10" height="70" as="geometry" />
        </mxCell>
        <mxCell id="4JGCPMi-e-G_XObt6sAW-36" value="" style="html=1;points=[[0,0,0,0,5],[0,1,0,0,-5],[1,0,0,0,5],[1,1,0,0,-5]];perimeter=orthogonalPerimeter;outlineConnect=0;targetShapes=umlLifeline;portConstraint=eastwest;newEdgeStyle={&quot;curved&quot;:0,&quot;rounded&quot;:0};strokeColor=#000000;fillColor=#dae8fc;" vertex="1" parent="4JGCPMi-e-G_XObt6sAW-7">
          <mxGeometry x="75" y="210" width="10" height="100" as="geometry" />
        </mxCell>
        <mxCell id="4JGCPMi-e-G_XObt6sAW-46" value="" style="html=1;points=[[0,0,0,0,5],[0,1,0,0,-5],[1,0,0,0,5],[1,1,0,0,-5]];perimeter=orthogonalPerimeter;outlineConnect=0;targetShapes=umlLifeline;portConstraint=eastwest;newEdgeStyle={&quot;curved&quot;:0,&quot;rounded&quot;:0};strokeColor=#000000;fillColor=#dae8fc;" vertex="1" parent="4JGCPMi-e-G_XObt6sAW-7">
          <mxGeometry x="75" y="360" width="10" height="70" as="geometry" />
        </mxCell>
        <mxCell id="4JGCPMi-e-G_XObt6sAW-68" value="" style="html=1;points=[[0,0,0,0,5],[0,1,0,0,-5],[1,0,0,0,5],[1,1,0,0,-5]];perimeter=orthogonalPerimeter;outlineConnect=0;targetShapes=umlLifeline;portConstraint=eastwest;newEdgeStyle={&quot;curved&quot;:0,&quot;rounded&quot;:0};strokeColor=#000000;fillColor=#dae8fc;" vertex="1" parent="4JGCPMi-e-G_XObt6sAW-7">
          <mxGeometry x="75" y="540" width="10" height="150" as="geometry" />
        </mxCell>
        <mxCell id="4JGCPMi-e-G_XObt6sAW-94" value="" style="html=1;points=[[0,0,0,0,5],[0,1,0,0,-5],[1,0,0,0,5],[1,1,0,0,-5]];perimeter=orthogonalPerimeter;outlineConnect=0;targetShapes=umlLifeline;portConstraint=eastwest;newEdgeStyle={&quot;curved&quot;:0,&quot;rounded&quot;:0};strokeColor=#000000;fillColor=#dae8fc;" vertex="1" parent="4JGCPMi-e-G_XObt6sAW-7">
          <mxGeometry x="75" y="760" width="10" height="60" as="geometry" />
        </mxCell>
        <mxCell id="4JGCPMi-e-G_XObt6sAW-89" value="" style="html=1;points=[[0,0,0,0,5],[0,1,0,0,-5],[1,0,0,0,5],[1,1,0,0,-5]];perimeter=orthogonalPerimeter;outlineConnect=0;targetShapes=umlLifeline;portConstraint=eastwest;newEdgeStyle={&quot;curved&quot;:0,&quot;rounded&quot;:0};strokeColor=#000000;fillColor=#dae8fc;" vertex="1" parent="4JGCPMi-e-G_XObt6sAW-7">
          <mxGeometry x="75" y="1340" width="10" height="80" as="geometry" />
        </mxCell>
        <mxCell id="4JGCPMi-e-G_XObt6sAW-114" value="" style="html=1;points=[[0,0,0,0,5],[0,1,0,0,-5],[1,0,0,0,5],[1,1,0,0,-5]];perimeter=orthogonalPerimeter;outlineConnect=0;targetShapes=umlLifeline;portConstraint=eastwest;newEdgeStyle={&quot;curved&quot;:0,&quot;rounded&quot;:0};strokeColor=#000000;fillColor=#dae8fc;" vertex="1" parent="4JGCPMi-e-G_XObt6sAW-7">
          <mxGeometry x="75" y="1520" width="10" height="80" as="geometry" />
        </mxCell>
        <mxCell id="4JGCPMi-e-G_XObt6sAW-10" value="Selects Student &amp;amp;&amp;nbsp;&lt;div&gt;click &quot;Search Positions&quot;&lt;/div&gt;" style="text;html=1;align=center;verticalAlign=middle;resizable=0;points=[];autosize=1;strokeColor=none;fillColor=none;fontSize=13;fontStyle=2" vertex="1" parent="1">
          <mxGeometry x="-813" y="10" width="160" height="40" as="geometry" />
        </mxCell>
        <mxCell id="4JGCPMi-e-G_XObt6sAW-11" value="" style="endArrow=classic;html=1;rounded=0;" edge="1" parent="1">
          <mxGeometry width="50" height="50" relative="1" as="geometry">
            <mxPoint x="-815.5" y="48" as="sourcePoint" />
            <mxPoint x="-645" y="48" as="targetPoint" />
          </mxGeometry>
        </mxCell>
        <mxCell id="4JGCPMi-e-G_XObt6sAW-12" value="showSearchPositionsForm()" style="text;html=1;align=center;verticalAlign=middle;resizable=0;points=[];autosize=1;strokeColor=none;fillColor=none;fontStyle=2;fontSize=13;" vertex="1" parent="1">
          <mxGeometry x="-640" y="40" width="190" height="30" as="geometry" />
        </mxCell>
        <mxCell id="4JGCPMi-e-G_XObt6sAW-13" value="" style="endArrow=classic;html=1;rounded=0;" edge="1" parent="1">
          <mxGeometry width="50" height="50" relative="1" as="geometry">
            <mxPoint x="-640.5" y="67" as="sourcePoint" />
            <mxPoint x="-445" y="67" as="targetPoint" />
          </mxGeometry>
        </mxCell>
        <mxCell id="4JGCPMi-e-G_XObt6sAW-14" value="StudentService" style="shape=umlLifeline;perimeter=lifelinePerimeter;whiteSpace=wrap;html=1;container=1;dropTarget=0;collapsible=0;recursiveResize=0;outlineConnect=0;portConstraint=eastwest;newEdgeStyle={&quot;curved&quot;:0,&quot;rounded&quot;:0};fontSize=14;fontStyle=1" vertex="1" parent="1">
          <mxGeometry x="-320" y="-40" width="110" height="1720" as="geometry" />
        </mxCell>
        <mxCell id="4JGCPMi-e-G_XObt6sAW-9" value="" style="html=1;points=[[0,0,0,0,5],[0,1,0,0,-5],[1,0,0,0,5],[1,1,0,0,-5]];perimeter=orthogonalPerimeter;outlineConnect=0;targetShapes=umlLifeline;portConstraint=eastwest;newEdgeStyle={&quot;curved&quot;:0,&quot;rounded&quot;:0};strokeColor=#000000;fillColor=#dae8fc;" vertex="1" parent="4JGCPMi-e-G_XObt6sAW-14">
          <mxGeometry x="50" y="110" width="10" height="160" as="geometry" />
        </mxCell>
        <mxCell id="4JGCPMi-e-G_XObt6sAW-20" value="retrieveProfileFromUserID()" style="text;html=1;align=center;verticalAlign=middle;resizable=0;points=[];autosize=1;strokeColor=none;fillColor=none;fontSize=13;fontStyle=2" vertex="1" parent="1">
          <mxGeometry x="-445" y="70" width="180" height="30" as="geometry" />
        </mxCell>
        <mxCell id="4JGCPMi-e-G_XObt6sAW-21" value="" style="endArrow=classic;html=1;rounded=0;exitX=0;exitY=1;exitDx=0;exitDy=-5;exitPerimeter=0;" edge="1" parent="1">
          <mxGeometry width="50" height="50" relative="1" as="geometry">
            <mxPoint x="-445" y="98" as="sourcePoint" />
            <mxPoint x="-265.5" y="98" as="targetPoint" />
          </mxGeometry>
        </mxCell>
        <mxCell id="4JGCPMi-e-G_XObt6sAW-22" value="StudentDAORepository" style="shape=umlLifeline;perimeter=lifelinePerimeter;whiteSpace=wrap;html=1;container=1;dropTarget=0;collapsible=0;recursiveResize=0;outlineConnect=0;portConstraint=eastwest;newEdgeStyle={&quot;curved&quot;:0,&quot;rounded&quot;:0};fontSize=14;fontStyle=1" vertex="1" parent="1">
          <mxGeometry x="-160" y="-40" width="170" height="1720" as="geometry" />
        </mxCell>
        <mxCell id="4JGCPMi-e-G_XObt6sAW-23" value="" style="html=1;points=[[0,0,0,0,5],[0,1,0,0,-5],[1,0,0,0,5],[1,1,0,0,-5]];perimeter=orthogonalPerimeter;outlineConnect=0;targetShapes=umlLifeline;portConstraint=eastwest;newEdgeStyle={&quot;curved&quot;:0,&quot;rounded&quot;:0};strokeColor=#000000;fillColor=#dae8fc;" vertex="1" parent="4JGCPMi-e-G_XObt6sAW-22">
          <mxGeometry x="80" y="150" width="10" height="90" as="geometry" />
        </mxCell>
        <mxCell id="4JGCPMi-e-G_XObt6sAW-24" value="findByUserID()" style="text;html=1;align=center;verticalAlign=middle;resizable=0;points=[];autosize=1;strokeColor=none;fillColor=none;fontSize=13;fontStyle=2" vertex="1" parent="1">
          <mxGeometry x="-220" y="100" width="110" height="30" as="geometry" />
        </mxCell>
        <mxCell id="4JGCPMi-e-G_XObt6sAW-25" value="" style="endArrow=classic;html=1;rounded=0;" edge="1" parent="1">
          <mxGeometry width="50" height="50" relative="1" as="geometry">
            <mxPoint x="-260" y="126.00000000000023" as="sourcePoint" />
            <mxPoint x="-80" y="126.00000000000023" as="targetPoint" />
          </mxGeometry>
        </mxCell>
        <mxCell id="4JGCPMi-e-G_XObt6sAW-26" value="Database (MySQL)" style="shape=umlLifeline;perimeter=lifelinePerimeter;whiteSpace=wrap;html=1;container=1;dropTarget=0;collapsible=0;recursiveResize=0;outlineConnect=0;portConstraint=eastwest;newEdgeStyle={&quot;curved&quot;:0,&quot;rounded&quot;:0};fontSize=14;fontStyle=1" vertex="1" parent="1">
          <mxGeometry x="40" y="-40" width="100" height="1710" as="geometry" />
        </mxCell>
        <mxCell id="4JGCPMi-e-G_XObt6sAW-30" value="" style="html=1;points=[[0,0,0,0,5],[0,1,0,0,-5],[1,0,0,0,5],[1,1,0,0,-5]];perimeter=orthogonalPerimeter;outlineConnect=0;targetShapes=umlLifeline;portConstraint=eastwest;newEdgeStyle={&quot;curved&quot;:0,&quot;rounded&quot;:0};strokeColor=#000000;fillColor=#dae8fc;" vertex="1" parent="4JGCPMi-e-G_XObt6sAW-26">
          <mxGeometry x="45" y="170" width="10" height="70" as="geometry" />
        </mxCell>
        <mxCell id="4JGCPMi-e-G_XObt6sAW-31" value="" style="endArrow=classic;html=1;rounded=0;" edge="1" parent="1">
          <mxGeometry width="50" height="50" relative="1" as="geometry">
            <mxPoint x="-74.75" y="140.00000000000023" as="sourcePoint" />
            <mxPoint x="84.74999999999955" y="140.00000000000023" as="targetPoint" />
          </mxGeometry>
        </mxCell>
        <mxCell id="4JGCPMi-e-G_XObt6sAW-32" value="find Student" style="text;html=1;align=center;verticalAlign=middle;resizable=0;points=[];autosize=1;strokeColor=none;fillColor=none;fontStyle=2;fontSize=13;" vertex="1" parent="1">
          <mxGeometry x="-40" y="110" width="90" height="30" as="geometry" />
        </mxCell>
        <mxCell id="4JGCPMi-e-G_XObt6sAW-33" value="return Student&amp;nbsp;" style="html=1;verticalAlign=bottom;endArrow=open;dashed=1;endSize=8;curved=0;rounded=0;fontSize=13;fontStyle=2;" edge="1" parent="1" target="4JGCPMi-e-G_XObt6sAW-22">
          <mxGeometry x="-0.0026" relative="1" as="geometry">
            <mxPoint x="90" y="170" as="sourcePoint" />
            <mxPoint x="-50" y="170" as="targetPoint" />
            <mxPoint as="offset" />
          </mxGeometry>
        </mxCell>
        <mxCell id="4JGCPMi-e-G_XObt6sAW-34" value="return Student&amp;nbsp;" style="html=1;verticalAlign=bottom;endArrow=open;dashed=1;endSize=8;curved=0;rounded=0;fontSize=13;fontStyle=2;" edge="1" parent="1" source="4JGCPMi-e-G_XObt6sAW-23">
          <mxGeometry x="-0.0026" relative="1" as="geometry">
            <mxPoint x="-100" y="190" as="sourcePoint" />
            <mxPoint x="-265" y="190" as="targetPoint" />
            <mxPoint as="offset" />
          </mxGeometry>
        </mxCell>
        <mxCell id="4JGCPMi-e-G_XObt6sAW-37" value="return Student&amp;nbsp;" style="html=1;verticalAlign=bottom;endArrow=open;dashed=1;endSize=8;curved=0;rounded=0;fontSize=13;fontStyle=2;" edge="1" parent="1" target="4JGCPMi-e-G_XObt6sAW-36">
          <mxGeometry x="-0.0026" relative="1" as="geometry">
            <mxPoint x="-270" y="210" as="sourcePoint" />
            <mxPoint x="-430" y="210" as="targetPoint" />
            <mxPoint as="offset" />
          </mxGeometry>
        </mxCell>
        <mxCell id="4JGCPMi-e-G_XObt6sAW-38" value="&quot;call&quot;" style="text;html=1;align=center;verticalAlign=middle;resizable=0;points=[];autosize=1;strokeColor=none;fillColor=none;" vertex="1" parent="1">
          <mxGeometry x="-430" y="220" width="50" height="30" as="geometry" />
        </mxCell>
        <mxCell id="4JGCPMi-e-G_XObt6sAW-39" value="" style="endArrow=classic;html=1;rounded=0;" edge="1" parent="1" target="4JGCPMi-e-G_XObt6sAW-29">
          <mxGeometry width="50" height="50" relative="1" as="geometry">
            <mxPoint x="-440.3695652173915" y="260" as="sourcePoint" />
            <mxPoint x="210" y="260" as="targetPoint" />
          </mxGeometry>
        </mxCell>
        <mxCell id="4JGCPMi-e-G_XObt6sAW-40" value="SearchPositions" style="shape=umlLifeline;perimeter=lifelinePerimeter;whiteSpace=wrap;html=1;container=1;dropTarget=0;collapsible=0;recursiveResize=0;outlineConnect=0;portConstraint=eastwest;newEdgeStyle={&quot;curved&quot;:0,&quot;rounded&quot;:0};fontSize=14;fontStyle=1" vertex="1" parent="1">
          <mxGeometry x="390" y="-40" width="145" height="1720" as="geometry" />
        </mxCell>
        <mxCell id="4JGCPMi-e-G_XObt6sAW-29" value="" style="html=1;points=[[0,0,0,0,5],[0,1,0,0,-5],[1,0,0,0,5],[1,1,0,0,-5]];perimeter=orthogonalPerimeter;outlineConnect=0;targetShapes=umlLifeline;portConstraint=eastwest;newEdgeStyle={&quot;curved&quot;:0,&quot;rounded&quot;:0};strokeColor=#000000;fillColor=#dae8fc;" vertex="1" parent="4JGCPMi-e-G_XObt6sAW-40">
          <mxGeometry x="67.5" y="270" width="10" height="120" as="geometry" />
        </mxCell>
        <mxCell id="4JGCPMi-e-G_XObt6sAW-44" value="" style="endArrow=classic;html=1;rounded=0;" edge="1" parent="1" target="4JGCPMi-e-G_XObt6sAW-40">
          <mxGeometry width="50" height="50" relative="1" as="geometry">
            <mxPoint x="-815.75" y="293" as="sourcePoint" />
            <mxPoint x="215" y="293" as="targetPoint" />
          </mxGeometry>
        </mxCell>
        <mxCell id="4JGCPMi-e-G_XObt6sAW-45" value="Selects Strategy for search &amp;amp;&amp;nbsp;&lt;div&gt;click Search&lt;/div&gt;" style="text;html=1;align=center;verticalAlign=middle;resizable=0;points=[];autosize=1;strokeColor=none;fillColor=none;fontSize=13;fontStyle=2" vertex="1" parent="1">
          <mxGeometry x="-823" y="250" width="200" height="40" as="geometry" />
        </mxCell>
        <mxCell id="4JGCPMi-e-G_XObt6sAW-47" value="" style="endArrow=classic;html=1;rounded=0;" edge="1" parent="1" source="4JGCPMi-e-G_XObt6sAW-40">
          <mxGeometry width="50" height="50" relative="1" as="geometry">
            <mxPoint x="215" y="338" as="sourcePoint" />
            <mxPoint x="-440.75" y="338" as="targetPoint" />
          </mxGeometry>
        </mxCell>
        <mxCell id="4JGCPMi-e-G_XObt6sAW-48" value="doSearchPositions()" style="text;html=1;align=center;verticalAlign=middle;resizable=0;points=[];autosize=1;strokeColor=none;fillColor=none;fontSize=13;fontStyle=2" vertex="1" parent="1">
          <mxGeometry x="85" y="310" width="140" height="30" as="geometry" />
        </mxCell>
        <mxCell id="4JGCPMi-e-G_XObt6sAW-50" value="TraineeshipPositionService" style="shape=umlLifeline;perimeter=lifelinePerimeter;whiteSpace=wrap;html=1;container=1;dropTarget=0;collapsible=0;recursiveResize=0;outlineConnect=0;portConstraint=eastwest;newEdgeStyle={&quot;curved&quot;:0,&quot;rounded&quot;:0};fontSize=14;fontStyle=1" vertex="1" parent="1">
          <mxGeometry x="160" y="-40" width="200" height="1720" as="geometry" />
        </mxCell>
        <mxCell id="4JGCPMi-e-G_XObt6sAW-51" value="" style="html=1;points=[[0,0,0,0,5],[0,1,0,0,-5],[1,0,0,0,5],[1,1,0,0,-5]];perimeter=orthogonalPerimeter;outlineConnect=0;targetShapes=umlLifeline;portConstraint=eastwest;newEdgeStyle={&quot;curved&quot;:0,&quot;rounded&quot;:0};strokeColor=#000000;fillColor=#dae8fc;" vertex="1" parent="4JGCPMi-e-G_XObt6sAW-50">
          <mxGeometry x="95" y="390" width="10" height="150" as="geometry" />
        </mxCell>
        <mxCell id="4JGCPMi-e-G_XObt6sAW-80" value="" style="html=1;points=[[0,0,0,0,5],[0,1,0,0,-5],[1,0,0,0,5],[1,1,0,0,-5]];perimeter=orthogonalPerimeter;outlineConnect=0;targetShapes=umlLifeline;portConstraint=eastwest;newEdgeStyle={&quot;curved&quot;:0,&quot;rounded&quot;:0};strokeColor=#000000;fillColor=#dae8fc;" vertex="1" parent="4JGCPMi-e-G_XObt6sAW-50">
          <mxGeometry x="92.5" y="1390" width="10" height="70" as="geometry" />
        </mxCell>
        <mxCell id="4JGCPMi-e-G_XObt6sAW-83" value="" style="html=1;points=[[0,0,0,0,5],[0,1,0,0,-5],[1,0,0,0,5],[1,1,0,0,-5]];perimeter=orthogonalPerimeter;outlineConnect=0;targetShapes=umlLifeline;portConstraint=eastwest;newEdgeStyle={&quot;curved&quot;:0,&quot;rounded&quot;:0};strokeColor=#000000;fillColor=#dae8fc;" vertex="1" parent="4JGCPMi-e-G_XObt6sAW-50">
          <mxGeometry x="-242.5" y="1420" width="10" height="70" as="geometry" />
        </mxCell>
        <mxCell id="4JGCPMi-e-G_XObt6sAW-84" value="" style="endArrow=classic;html=1;rounded=0;" edge="1" parent="4JGCPMi-e-G_XObt6sAW-50">
          <mxGeometry width="50" height="50" relative="1" as="geometry">
            <mxPoint x="87.5" y="1443" as="sourcePoint" />
            <mxPoint x="-232.5" y="1443" as="targetPoint" />
          </mxGeometry>
        </mxCell>
        <mxCell id="4JGCPMi-e-G_XObt6sAW-85" value="save()" style="text;html=1;align=center;verticalAlign=middle;resizable=0;points=[];autosize=1;strokeColor=none;fillColor=none;fontStyle=2;fontSize=13;" vertex="1" parent="4JGCPMi-e-G_XObt6sAW-50">
          <mxGeometry x="17.5" y="1410" width="60" height="30" as="geometry" />
        </mxCell>
        <mxCell id="4JGCPMi-e-G_XObt6sAW-86" value="" style="endArrow=classic;html=1;rounded=0;" edge="1" parent="4JGCPMi-e-G_XObt6sAW-50" target="4JGCPMi-e-G_XObt6sAW-87">
          <mxGeometry width="50" height="50" relative="1" as="geometry">
            <mxPoint x="-232.5" y="1470.0000000000002" as="sourcePoint" />
            <mxPoint x="-82.5" y="1470" as="targetPoint" />
          </mxGeometry>
        </mxCell>
        <mxCell id="4JGCPMi-e-G_XObt6sAW-87" value="" style="html=1;points=[[0,0,0,0,5],[0,1,0,0,-5],[1,0,0,0,5],[1,1,0,0,-5]];perimeter=orthogonalPerimeter;outlineConnect=0;targetShapes=umlLifeline;portConstraint=eastwest;newEdgeStyle={&quot;curved&quot;:0,&quot;rounded&quot;:0};strokeColor=#000000;fillColor=#dae8fc;" vertex="1" parent="4JGCPMi-e-G_XObt6sAW-50">
          <mxGeometry x="-77.5" y="1450" width="10" height="40" as="geometry" />
        </mxCell>
        <mxCell id="4JGCPMi-e-G_XObt6sAW-88" value="saves Position to Student" style="text;html=1;align=center;verticalAlign=middle;resizable=0;points=[];autosize=1;strokeColor=none;fillColor=none;" vertex="1" parent="4JGCPMi-e-G_XObt6sAW-50">
          <mxGeometry x="-237.5" y="1450" width="160" height="30" as="geometry" />
        </mxCell>
        <mxCell id="4JGCPMi-e-G_XObt6sAW-53" value="findMatchesForStudent()" style="text;html=1;align=center;verticalAlign=middle;resizable=0;points=[];autosize=1;strokeColor=none;fillColor=none;fontStyle=2;fontSize=13;" vertex="1" parent="1">
          <mxGeometry x="-435" y="350" width="170" height="30" as="geometry" />
        </mxCell>
        <mxCell id="4JGCPMi-e-G_XObt6sAW-54" value="" style="endArrow=classic;html=1;rounded=0;" edge="1" parent="1">
          <mxGeometry width="50" height="50" relative="1" as="geometry">
            <mxPoint x="-435" y="377" as="sourcePoint" />
            <mxPoint x="260" y="377" as="targetPoint" />
          </mxGeometry>
        </mxCell>
        <mxCell id="4JGCPMi-e-G_XObt6sAW-56" value="PositionsSearchStrategy" style="shape=umlLifeline;perimeter=lifelinePerimeter;whiteSpace=wrap;html=1;container=1;dropTarget=0;collapsible=0;recursiveResize=0;outlineConnect=0;portConstraint=eastwest;newEdgeStyle={&quot;curved&quot;:0,&quot;rounded&quot;:0};fontSize=14;fontStyle=1" vertex="1" parent="1">
          <mxGeometry x="560" y="-40" width="200" height="1720" as="geometry" />
        </mxCell>
        <mxCell id="4JGCPMi-e-G_XObt6sAW-58" value="searchPositions()" style="text;html=1;align=center;verticalAlign=middle;resizable=0;points=[];autosize=1;strokeColor=none;fillColor=none;fontSize=13;fontStyle=2" vertex="1" parent="1">
          <mxGeometry x="480" y="460" width="120" height="30" as="geometry" />
        </mxCell>
        <mxCell id="4JGCPMi-e-G_XObt6sAW-60" value="PositionsSearchFactory" style="shape=umlLifeline;perimeter=lifelinePerimeter;whiteSpace=wrap;html=1;container=1;dropTarget=0;collapsible=0;recursiveResize=0;outlineConnect=0;portConstraint=eastwest;newEdgeStyle={&quot;curved&quot;:0,&quot;rounded&quot;:0};fontSize=14;fontStyle=1" vertex="1" parent="1">
          <mxGeometry x="800" y="-40" width="200" height="1720" as="geometry" />
        </mxCell>
        <mxCell id="4JGCPMi-e-G_XObt6sAW-61" value="" style="html=1;points=[[0,0,0,0,5],[0,1,0,0,-5],[1,0,0,0,5],[1,1,0,0,-5]];perimeter=orthogonalPerimeter;outlineConnect=0;targetShapes=umlLifeline;portConstraint=eastwest;newEdgeStyle={&quot;curved&quot;:0,&quot;rounded&quot;:0};strokeColor=#000000;fillColor=#dae8fc;" vertex="1" parent="4JGCPMi-e-G_XObt6sAW-60">
          <mxGeometry x="95" y="420" width="10" height="70" as="geometry" />
        </mxCell>
        <mxCell id="4JGCPMi-e-G_XObt6sAW-62" value="" style="endArrow=classic;html=1;rounded=0;" edge="1" parent="1" source="4JGCPMi-e-G_XObt6sAW-50">
          <mxGeometry width="50" height="50" relative="1" as="geometry">
            <mxPoint x="410" y="410" as="sourcePoint" />
            <mxPoint x="899.5000000000005" y="407" as="targetPoint" />
          </mxGeometry>
        </mxCell>
        <mxCell id="4JGCPMi-e-G_XObt6sAW-63" value="createStrategy()" style="text;html=1;align=center;verticalAlign=middle;resizable=0;points=[];autosize=1;strokeColor=none;fillColor=none;fontSize=13;fontStyle=2" vertex="1" parent="1">
          <mxGeometry x="485" y="380" width="120" height="30" as="geometry" />
        </mxCell>
        <mxCell id="4JGCPMi-e-G_XObt6sAW-64" value="" style="endArrow=classic;html=1;rounded=0;" edge="1" parent="1">
          <mxGeometry width="50" height="50" relative="1" as="geometry">
            <mxPoint x="259.07142857142844" y="485" as="sourcePoint" />
            <mxPoint x="655" y="485" as="targetPoint" />
            <Array as="points" />
          </mxGeometry>
        </mxCell>
        <mxCell id="4JGCPMi-e-G_XObt6sAW-57" value="" style="html=1;points=[[0,0,0,0,5],[0,1,0,0,-5],[1,0,0,0,5],[1,1,0,0,-5]];perimeter=orthogonalPerimeter;outlineConnect=0;targetShapes=umlLifeline;portConstraint=eastwest;newEdgeStyle={&quot;curved&quot;:0,&quot;rounded&quot;:0};strokeColor=#000000;fillColor=#dae8fc;" vertex="1" parent="1">
          <mxGeometry x="655" y="470" width="10" height="60" as="geometry" />
        </mxCell>
        <mxCell id="4JGCPMi-e-G_XObt6sAW-65" value="return Strategy" style="html=1;verticalAlign=bottom;endArrow=open;dashed=1;endSize=8;curved=0;rounded=0;fontSize=13;fontStyle=2;" edge="1" parent="1" target="4JGCPMi-e-G_XObt6sAW-50">
          <mxGeometry x="-0.0026" relative="1" as="geometry">
            <mxPoint x="895.0000000000005" y="442" as="sourcePoint" />
            <mxPoint x="425" y="442" as="targetPoint" />
            <mxPoint as="offset" />
          </mxGeometry>
        </mxCell>
        <mxCell id="4JGCPMi-e-G_XObt6sAW-67" value="return matches" style="html=1;verticalAlign=bottom;endArrow=open;dashed=1;endSize=8;curved=0;rounded=0;fontSize=13;fontStyle=2;" edge="1" parent="1" target="4JGCPMi-e-G_XObt6sAW-7">
          <mxGeometry x="-0.0026" relative="1" as="geometry">
            <mxPoint x="655.0000000000005" y="520" as="sourcePoint" />
            <mxPoint x="185" y="520" as="targetPoint" />
            <mxPoint as="offset" />
          </mxGeometry>
        </mxCell>
        <mxCell id="4JGCPMi-e-G_XObt6sAW-69" value="alt" style="shape=umlFrame;whiteSpace=wrap;html=1;pointerEvents=0;" vertex="1" parent="1">
          <mxGeometry x="-540" y="580" width="1750" height="300" as="geometry" />
        </mxCell>
        <mxCell id="4JGCPMi-e-G_XObt6sAW-70" value="Found Matches" style="text;html=1;align=center;verticalAlign=middle;resizable=0;points=[];autosize=1;strokeColor=#666666;fillColor=#f5f5f5;fontSize=14;fontStyle=2;fontColor=#333333;" vertex="1" parent="1">
          <mxGeometry x="-55" y="600" width="120" height="30" as="geometry" />
        </mxCell>
        <mxCell id="4JGCPMi-e-G_XObt6sAW-71" value="FindMatches" style="shape=umlLifeline;perimeter=lifelinePerimeter;whiteSpace=wrap;html=1;container=1;dropTarget=0;collapsible=0;recursiveResize=0;outlineConnect=0;portConstraint=eastwest;newEdgeStyle={&quot;curved&quot;:0,&quot;rounded&quot;:0};fontSize=14;fontStyle=1" vertex="1" parent="1">
          <mxGeometry x="1040" y="-40" width="120" height="1720" as="geometry" />
        </mxCell>
        <mxCell id="4JGCPMi-e-G_XObt6sAW-72" value="" style="html=1;points=[[0,0,0,0,5],[0,1,0,0,-5],[1,0,0,0,5],[1,1,0,0,-5]];perimeter=orthogonalPerimeter;outlineConnect=0;targetShapes=umlLifeline;portConstraint=eastwest;newEdgeStyle={&quot;curved&quot;:0,&quot;rounded&quot;:0};strokeColor=#000000;fillColor=#dae8fc;" vertex="1" parent="4JGCPMi-e-G_XObt6sAW-71">
          <mxGeometry x="55" y="660" width="10" height="50" as="geometry" />
        </mxCell>
        <mxCell id="4JGCPMi-e-G_XObt6sAW-91" value="" style="html=1;points=[[0,0,0,0,5],[0,1,0,0,-5],[1,0,0,0,5],[1,1,0,0,-5]];perimeter=orthogonalPerimeter;outlineConnect=0;targetShapes=umlLifeline;portConstraint=eastwest;newEdgeStyle={&quot;curved&quot;:0,&quot;rounded&quot;:0};strokeColor=#000000;fillColor=#dae8fc;" vertex="1" parent="4JGCPMi-e-G_XObt6sAW-71">
          <mxGeometry x="55" y="790" width="10" height="105" as="geometry" />
        </mxCell>
        <mxCell id="4JGCPMi-e-G_XObt6sAW-113" value="" style="html=1;points=[[0,0,0,0,5],[0,1,0,0,-5],[1,0,0,0,5],[1,1,0,0,-5]];perimeter=orthogonalPerimeter;outlineConnect=0;targetShapes=umlLifeline;portConstraint=eastwest;newEdgeStyle={&quot;curved&quot;:0,&quot;rounded&quot;:0};strokeColor=#000000;fillColor=#dae8fc;" vertex="1" parent="4JGCPMi-e-G_XObt6sAW-71">
          <mxGeometry x="55" y="1350" width="10" height="50" as="geometry" />
        </mxCell>
        <mxCell id="4JGCPMi-e-G_XObt6sAW-73" value="" style="endArrow=classic;html=1;rounded=0;" edge="1" parent="1">
          <mxGeometry width="50" height="50" relative="1" as="geometry">
            <mxPoint x="-434.99818181818154" y="640" as="sourcePoint" />
            <mxPoint x="1100" y="640" as="targetPoint" />
          </mxGeometry>
        </mxCell>
        <mxCell id="4JGCPMi-e-G_XObt6sAW-74" value="&quot;call&quot;" style="text;html=1;align=center;verticalAlign=middle;resizable=0;points=[];autosize=1;strokeColor=none;fillColor=none;fontSize=13;fontStyle=2" vertex="1" parent="1">
          <mxGeometry x="-390" y="610" width="50" height="30" as="geometry" />
        </mxCell>
        <mxCell id="4JGCPMi-e-G_XObt6sAW-90" value="Found Not Matches" style="text;html=1;align=center;verticalAlign=middle;resizable=0;points=[];autosize=1;strokeColor=#666666;fillColor=#f5f5f5;fontSize=14;fontStyle=2;fontColor=#333333;" vertex="1" parent="1">
          <mxGeometry x="-70" y="680" width="150" height="30" as="geometry" />
        </mxCell>
        <mxCell id="4JGCPMi-e-G_XObt6sAW-92" value="show error&amp;nbsp;&lt;div&gt;message&lt;/div&gt;" style="html=1;align=left;spacingLeft=2;endArrow=block;rounded=0;edgeStyle=orthogonalEdgeStyle;curved=0;rounded=0;fontSize=13;fontStyle=2" edge="1" parent="1">
          <mxGeometry relative="1" as="geometry">
            <mxPoint x="1100" y="804.95" as="sourcePoint" />
            <Array as="points">
              <mxPoint x="1130" y="834.95" />
            </Array>
            <mxPoint x="1105" y="835.0088235294122" as="targetPoint" />
          </mxGeometry>
        </mxCell>
        <mxCell id="4JGCPMi-e-G_XObt6sAW-93" value="" style="endArrow=classic;html=1;rounded=0;" edge="1" parent="1">
          <mxGeometry width="50" height="50" relative="1" as="geometry">
            <mxPoint x="-434.99818181818154" y="760" as="sourcePoint" />
            <mxPoint x="1100" y="760" as="targetPoint" />
          </mxGeometry>
        </mxCell>
        <mxCell id="4JGCPMi-e-G_XObt6sAW-95" value="&quot;call&quot;" style="text;html=1;align=center;verticalAlign=middle;resizable=0;points=[];autosize=1;strokeColor=none;fillColor=none;fontSize=13;fontStyle=2" vertex="1" parent="1">
          <mxGeometry x="-390" y="730" width="50" height="30" as="geometry" />
        </mxCell>
        <mxCell id="4JGCPMi-e-G_XObt6sAW-96" value="alt" style="shape=umlFrame;whiteSpace=wrap;html=1;pointerEvents=0;" vertex="1" parent="1">
          <mxGeometry x="-910" y="920" width="2480" height="340" as="geometry" />
        </mxCell>
        <mxCell id="4JGCPMi-e-G_XObt6sAW-76" value="" style="endArrow=classic;html=1;rounded=0;" edge="1" parent="1" source="4JGCPMi-e-G_XObt6sAW-97">
          <mxGeometry width="50" height="50" relative="1" as="geometry">
            <mxPoint x="-813" y="1020" as="sourcePoint" />
            <mxPoint x="1097" y="1020" as="targetPoint" />
          </mxGeometry>
        </mxCell>
        <mxCell id="4JGCPMi-e-G_XObt6sAW-98" value="Select Position" style="text;html=1;align=center;verticalAlign=middle;resizable=0;points=[];autosize=1;strokeColor=#666666;fillColor=#f5f5f5;fontSize=14;fontStyle=2;fontColor=#333333;" vertex="1" parent="1">
          <mxGeometry x="-55" y="960" width="120" height="30" as="geometry" />
        </mxCell>
        <mxCell id="4JGCPMi-e-G_XObt6sAW-99" value="" style="endArrow=classic;html=1;rounded=0;" edge="1" parent="1" target="4JGCPMi-e-G_XObt6sAW-97">
          <mxGeometry width="50" height="50" relative="1" as="geometry">
            <mxPoint x="-813" y="1020" as="sourcePoint" />
            <mxPoint x="1097" y="1020" as="targetPoint" />
          </mxGeometry>
        </mxCell>
        <mxCell id="4JGCPMi-e-G_XObt6sAW-97" value="" style="html=1;points=[[0,0,0,0,5],[0,1,0,0,-5],[1,0,0,0,5],[1,1,0,0,-5]];perimeter=orthogonalPerimeter;outlineConnect=0;targetShapes=umlLifeline;portConstraint=eastwest;newEdgeStyle={&quot;curved&quot;:0,&quot;rounded&quot;:0};strokeColor=#000000;fillColor=#dae8fc;" vertex="1" parent="1">
          <mxGeometry x="1095" y="990" width="10" height="190" as="geometry" />
        </mxCell>
        <mxCell id="4JGCPMi-e-G_XObt6sAW-75" value="Selects Position to&amp;nbsp;&lt;div&gt;assign Student &amp;amp;&amp;nbsp;&lt;div&gt;clicks &quot;Assign this Position&quot;&lt;/div&gt;&lt;/div&gt;" style="text;html=1;align=center;verticalAlign=middle;resizable=0;points=[];autosize=1;strokeColor=none;fillColor=none;fontSize=13;fontStyle=2" vertex="1" parent="1">
          <mxGeometry x="-810" y="950" width="180" height="60" as="geometry" />
        </mxCell>
        <mxCell id="4JGCPMi-e-G_XObt6sAW-78" value="assignPosition()" style="text;html=1;align=center;verticalAlign=middle;resizable=0;points=[];autosize=1;strokeColor=none;fillColor=none;fontSize=13;fontStyle=2" vertex="1" parent="1">
          <mxGeometry x="960" y="1290" width="120" height="30" as="geometry" />
        </mxCell>
        <mxCell id="4JGCPMi-e-G_XObt6sAW-82" value="" style="endArrow=classic;html=1;rounded=0;" edge="1" parent="1">
          <mxGeometry width="50" height="50" relative="1" as="geometry">
            <mxPoint x="-439.25" y="1370" as="sourcePoint" />
            <mxPoint x="250.25" y="1370" as="targetPoint" />
          </mxGeometry>
        </mxCell>
        <mxCell id="4JGCPMi-e-G_XObt6sAW-81" value="assignPositionToStudent()" style="text;html=1;align=center;verticalAlign=middle;resizable=0;points=[];autosize=1;strokeColor=none;fillColor=none;fontSize=13;fontStyle=2" vertex="1" parent="1">
          <mxGeometry x="-425" y="1340" width="170" height="30" as="geometry" />
        </mxCell>
        <mxCell id="4JGCPMi-e-G_XObt6sAW-79" value="" style="endArrow=classic;html=1;rounded=0;" edge="1" parent="1">
          <mxGeometry width="50" height="50" relative="1" as="geometry">
            <mxPoint x="1099.5" y="1319.9999999999995" as="sourcePoint" />
            <mxPoint x="-435" y="1319.9999999999995" as="targetPoint" />
          </mxGeometry>
        </mxCell>
        <mxCell id="4JGCPMi-e-G_XObt6sAW-101" value="View Company Details" style="text;html=1;align=center;verticalAlign=middle;resizable=0;points=[];autosize=1;strokeColor=#666666;fillColor=#f5f5f5;fontSize=14;fontStyle=2;fontColor=#333333;" vertex="1" parent="1">
          <mxGeometry x="-80" y="1050" width="160" height="30" as="geometry" />
        </mxCell>
        <mxCell id="4JGCPMi-e-G_XObt6sAW-102" value="Selects to view&amp;nbsp;&lt;div&gt;the Company details&amp;nbsp;&amp;nbsp;&lt;/div&gt;" style="text;html=1;align=center;verticalAlign=middle;resizable=0;points=[];autosize=1;strokeColor=none;fillColor=none;fontSize=13;fontStyle=2" vertex="1" parent="1">
          <mxGeometry x="-803" y="1070" width="150" height="40" as="geometry" />
        </mxCell>
        <mxCell id="4JGCPMi-e-G_XObt6sAW-103" value="" style="endArrow=classic;html=1;rounded=0;" edge="1" parent="1">
          <mxGeometry width="50" height="50" relative="1" as="geometry">
            <mxPoint x="-813" y="1117" as="sourcePoint" />
            <mxPoint x="1099.500000000001" y="1117" as="targetPoint" />
            <Array as="points">
              <mxPoint x="-601" y="1117" />
            </Array>
          </mxGeometry>
        </mxCell>
        <mxCell id="4JGCPMi-e-G_XObt6sAW-104" value="InformationsController" style="shape=umlLifeline;perimeter=lifelinePerimeter;whiteSpace=wrap;html=1;container=1;dropTarget=0;collapsible=0;recursiveResize=0;outlineConnect=0;portConstraint=eastwest;newEdgeStyle={&quot;curved&quot;:0,&quot;rounded&quot;:0};fontSize=14;fontStyle=1" vertex="1" parent="1">
          <mxGeometry x="1200" y="-40" width="190" height="1680" as="geometry" />
        </mxCell>
        <mxCell id="4JGCPMi-e-G_XObt6sAW-106" value="" style="html=1;points=[[0,0,0,0,5],[0,1,0,0,-5],[1,0,0,0,5],[1,1,0,0,-5]];perimeter=orthogonalPerimeter;outlineConnect=0;targetShapes=umlLifeline;portConstraint=eastwest;newEdgeStyle={&quot;curved&quot;:0,&quot;rounded&quot;:0};strokeColor=#000000;fillColor=#dae8fc;" vertex="1" parent="4JGCPMi-e-G_XObt6sAW-104">
          <mxGeometry x="90" y="1170" width="10" height="70" as="geometry" />
        </mxCell>
        <mxCell id="4JGCPMi-e-G_XObt6sAW-107" value="showCompanyDetails()" style="text;html=1;align=center;verticalAlign=middle;resizable=0;points=[];autosize=1;strokeColor=none;fillColor=none;fontSize=13;fontStyle=2" vertex="1" parent="1">
          <mxGeometry x="1115" y="1130" width="160" height="30" as="geometry" />
        </mxCell>
        <mxCell id="4JGCPMi-e-G_XObt6sAW-108" value="" style="endArrow=classic;html=1;rounded=0;" edge="1" parent="1">
          <mxGeometry width="50" height="50" relative="1" as="geometry">
            <mxPoint x="1105" y="1163" as="sourcePoint" />
            <mxPoint x="1290" y="1163" as="targetPoint" />
          </mxGeometry>
        </mxCell>
        <mxCell id="4JGCPMi-e-G_XObt6sAW-109" value="&quot;call&quot;" style="text;html=1;align=center;verticalAlign=middle;resizable=0;points=[];autosize=1;strokeColor=none;fillColor=none;fontSize=13;fontStyle=2" vertex="1" parent="1">
          <mxGeometry x="1390" y="1160" width="50" height="30" as="geometry" />
        </mxCell>
        <mxCell id="4JGCPMi-e-G_XObt6sAW-110" value="company-details" style="shape=umlLifeline;perimeter=lifelinePerimeter;whiteSpace=wrap;html=1;container=1;dropTarget=0;collapsible=0;recursiveResize=0;outlineConnect=0;portConstraint=eastwest;newEdgeStyle={&quot;curved&quot;:0,&quot;rounded&quot;:0};fontSize=14;fontStyle=1" vertex="1" parent="1">
          <mxGeometry x="1440" y="-40" width="190" height="1720" as="geometry" />
        </mxCell>
        <mxCell id="4JGCPMi-e-G_XObt6sAW-111" value="" style="html=1;points=[[0,0,0,0,5],[0,1,0,0,-5],[1,0,0,0,5],[1,1,0,0,-5]];perimeter=orthogonalPerimeter;outlineConnect=0;targetShapes=umlLifeline;portConstraint=eastwest;newEdgeStyle={&quot;curved&quot;:0,&quot;rounded&quot;:0};strokeColor=#000000;fillColor=#dae8fc;" vertex="1" parent="4JGCPMi-e-G_XObt6sAW-110">
          <mxGeometry x="90" y="1190" width="10" height="100" as="geometry" />
        </mxCell>
        <mxCell id="4JGCPMi-e-G_XObt6sAW-112" value="" style="endArrow=classic;html=1;rounded=0;" edge="1" parent="1">
          <mxGeometry width="50" height="50" relative="1" as="geometry">
            <mxPoint x="1293.681818181818" y="1190" as="sourcePoint" />
            <mxPoint x="1534.5" y="1190" as="targetPoint" />
          </mxGeometry>
        </mxCell>
        <mxCell id="4JGCPMi-e-G_XObt6sAW-115" value="&quot;call&quot;" style="text;html=1;align=center;verticalAlign=middle;resizable=0;points=[];autosize=1;strokeColor=none;fillColor=none;fontSize=13;fontStyle=2" vertex="1" parent="1">
          <mxGeometry x="-570" y="1480" width="50" height="30" as="geometry" />
        </mxCell>
        <mxCell id="4JGCPMi-e-G_XObt6sAW-117" value="" style="endArrow=classic;html=1;rounded=0;" edge="1" parent="1">
          <mxGeometry width="50" height="50" relative="1" as="geometry">
            <mxPoint x="-445" y="1506" as="sourcePoint" />
            <mxPoint x="-640.4523809523807" y="1506" as="targetPoint" />
          </mxGeometry>
        </mxCell>
        <mxCell id="4JGCPMi-e-G_XObt6sAW-118" value="show successful&amp;nbsp;&lt;div&gt;message&lt;/div&gt;" style="html=1;align=left;spacingLeft=2;endArrow=block;rounded=0;edgeStyle=orthogonalEdgeStyle;curved=0;rounded=0;fontSize=13;fontStyle=2" edge="1" parent="1">
          <mxGeometry relative="1" as="geometry">
            <mxPoint x="-630" y="1540.08" as="sourcePoint" />
            <Array as="points">
              <mxPoint x="-600" y="1570.08" />
            </Array>
            <mxPoint x="-625" y="1570.138823529412" as="targetPoint" />
          </mxGeometry>
        </mxCell>
      </root>
    </mxGraphModel>
  </diagram>
</mxfile>
